#!OML:ASF E:/inclinewalkrobotboard/Project1/Captureday1/Session1/subject1.ASF
:FULLY-SPECIFIED
:DEGREES
176
root 0 0 0 1.5401688141395424 -3.868212141795349 1.8520578514416335
lowerback 12.239233073153343 0.96079128602643 0.024914697421469845
upperback -4.446767345951195 1.2163619028596704 -0.6309771610467724
thorax -11.735512530605074 0.5626303706673885 -0.9369897468087771
lowerneck -6.067642066066877 1.866074513771805 4.77384960462138
upperneck 18.110079816363527 3.4989311716363156 -8.585237813111108
head 6.6482662734794244 1.3077240108779646 -3.2798823133228883
rclavicle 2.1632240803665806E-15 -7.057804451058539E-16
rhumerus 21.090080418749487 15.63007213566605 -47.80969178163737
rradius 73.27794168092065
rwrist 26.691799461640045
rhand -34.6150913667421 -57.1801406824357
rfingers 7.1250200000000286
rthumb -7.7174359150616265 -87.14135431883147
lclavicle -7.386285726374978E-16 -7.477117130603105E-16
lhumerus 23.170237151031166 -14.454632982704009 44.745541677011914
lradius 71.82841312679193
lwrist -22.253122931567518
lhand -45.75357249385454 -71.95398602543597
lfingers 7.1250200000000286
lthumb -18.50766019851796 -42.73732642496826
rfemur -24.972663602557397 -1.9481242627022448 17.781509680780655
rtibia 50.637230139652345
rfoot -34.277253670300475 -18.290807765080057
rtoes -21.879611937197435
lfemur -28.08266637249455 2.1391459512695743 -17.153235263881086
ltibia 50.83683281228262
lfoot -35.56714773750566 -0.2637667581725629
ltoes -22.10228749418951
177
root 0 0 0 1.5401479460153102 -3.8681401145045884 1.8518714119301056
lowerback 12.239246176276742 0.9607789970901137 0.025071618494003856
upperback -4.446755760106462 1.2163666820074017 -0.6309142538448701
thorax -11.735502430095451 0.5626286367708238 -0.937014055552607
lowerneck -6.067647929969866 1.866098656799071 4.773890556555637
upperneck 18.110101519004857 3.4989713724652303 -8.585316613035749
head 6.648270081572525 1.3077366192323172 -3.2799104756340576
rclavicle 2.160857058882115E-15 -7.077447431895613E-16
rhumerus 21.089073384335293 15.628486749080674 -47.80838813110256
rradius 73.27714602460122
rwrist 26.69320183788937
rhand -34.61516398279598 -57.18075628795775
rfingers 7.1250200000000286
rthumb -7.717496405706964 -87.14194954020495
lclavicle -7.401867686848295E-16 -7.49134018812552E-16
lhumerus 23.16992306744401 -14.453996049362269 44.74535562381719
lradius 71.82799758383979
lwrist -22.25348177540353
lhand -45.75354007070618 -71.95447397986584
lfingers 7.1250200000000286
lthumb -18.50761529505056 -42.737799069720026
rfemur -24.968666014728242 -1.9475857956585632 17.782700060920966
rtibia 50.63433123957695
rfoot -34.27804532267864 -18.288939125876738
rtoes -21.88377251301351
lfemur -28.08097992590641 2.138740067107019 -17.150288600826766
ltibia 50.84237199700715
lfoot -35.55511004103664 -0.270874581322742
ltoes -22.106427305931312
178
root 0 0 0 1.5402940763648747 -3.869938953107077 1.8516853548079473
lowerback 12.238242152012525 0.9619211955837503 0.02541909869620307
upperback -4.446700910128478 1.217814820718528 -0.6313291647970757
thorax -11.734787494139866 0.5633441316931606 -0.9377613102355937
lowerneck -6.068285710019685 1.8658190143046858 4.773614776547026
upperneck 18.11174747522596 3.4984274465382637 -8.584813409017324
head 6.648888400384253 1.3074928829391692 -3.2797513098047766
rclavicle 2.162975980056372E-15 -7.086847857015044E-16
rhumerus 21.08661062955293 15.626483058564402 -47.808394191112924
rradius 73.27576001826316
rwrist 26.6936769286797
rhand -34.614709648685135 -57.17778763581063
rfingers 7.1250200000000286
rthumb -7.716632267431882 -87.139535018185
lclavicle -7.388913455102508E-16 -7.324947884710818E-16
lhumerus 23.164308655509828 -14.44780997183025 44.74470671485547
lradius 71.82334387823099
lwrist -22.25590110975873
lhand -45.75172417040983 -71.95371755417955
lfingers 7.1250200000000286
lthumb -18.505721264009594 -42.737139891952395
rfemur -24.966434789864728 -1.948350283683868 17.779022342570233
rtibia 50.647937028207885
rfoot -34.26374983317889 -18.289801781591386
rtoes -21.872319617074286
lfemur -28.079016400715126 2.142475680259698 -17.14695044709353
ltibia 50.86109405000256
lfoot -35.52110419735677 -0.284211328051291
ltoes -22.0967501577421
179
root 0 0 0 1.5400737409987122 -3.868747441048804 1.851645617196084
lowerback 12.239120947266025 0.9611171062990931 0.025415721216278386
upperback -4.446762894101561 1.2168265280676682 -0.6309925434343601
thorax -11.735417086746768 0.5628501146989032 -0.937324765949618
lowerneck -6.067806743299542 1.866100499577519 4.773922585392606
upperneck 18.110923690313452 3.498952608194543 -8.585434679594936
head 6.648557373523756 1.3077127030711422 -3.2799602385461606
rclavicle 2.1618418988348304E-15 -7.085460593875221E-16
rhumerus 21.087152834589247 15.625956804886995 -47.806820861797924
rradius 73.27553774452868
rwrist 26.69493048397578
rhand -34.61506900586772 -57.18099999250467
rfingers 7.1250200000000286
rthumb -7.717389640695659 -87.14199660186057
lclavicle -7.38884212174987E-16 -7.485225970814392E-16
lhumerus 23.168114879381235 -14.451054044205081 44.744733536394115
lradius 71.82583072815217
lwrist -22.25501725560295
lhand -45.75315858733796 -71.95557750263322
lfingers 7.1250200000000286
lthumb -18.50723361400637 -42.73899086246486
rfemur -24.966159488899613 -1.9525377838364602 17.777218409660815
rtibia 50.66555369279463
rfoot -34.25858358751158 -18.28482466408275
rtoes -21.878179375189866
lfemur -28.082381866807786 2.1414380934478956 -17.148963421155457
ltibia 50.86546750911334
lfoot -35.53368295513147 -0.2837562097307713
ltoes -22.10057263254462
